<?xml version="1.0" encoding="UTF-8" standalone="no"?>
<!-- Created with Inkscape (http://www.inkscape.org/) -->

<svg
   xmlns:dc="http://purl.org/dc/elements/1.1/"
   xmlns:cc="http://creativecommons.org/ns#"
   xmlns:rdf="http://www.w3.org/1999/02/22-rdf-syntax-ns#"
   xmlns:svg="http://www.w3.org/2000/svg"
   xmlns="http://www.w3.org/2000/svg"
   xmlns:sodipodi="http://sodipodi.sourceforge.net/DTD/sodipodi-0.dtd"
   xmlns:inkscape="http://www.inkscape.org/namespaces/inkscape"
   width="190.5mm"
   height="317.5mm"
   viewBox="0 0 675 1125"
   id="svg2"
   version="1.1"
   inkscape:version="0.91 r13725"
   sodipodi:docname="Outline-body-aura.svg">
  <defs
     id="defs4">
    <marker
       inkscape:stockid="Arrow1Lstart"
       orient="auto"
       refY="0.0"
       refX="0.0"
       id="marker4877"
       style="overflow:visible"
       inkscape:isstock="true">
      <path
         id="path4879"
         d="M 0.0,0.0 L 5.0,-5.0 L -12.5,0.0 L 5.0,5.0 L 0.0,0.0 z "
         style="fill-rule:evenodd;stroke:#ff00ff;stroke-width:1pt;stroke-opacity:1;fill:#ff00ff;fill-opacity:1"
         transform="scale(0.8) translate(12.5,0)" />
    </marker>
    <marker
       inkscape:stockid="Arrow1Lstart"
       orient="auto"
       refY="0.0"
       refX="0.0"
       id="Arrow1Lstart"
       style="overflow:visible"
       inkscape:isstock="true">
      <path
         id="path4607"
         d="M 0.0,0.0 L 5.0,-5.0 L -12.5,0.0 L 5.0,5.0 L 0.0,0.0 z "
         style="fill-rule:evenodd;stroke:#ff00ff;stroke-width:1pt;stroke-opacity:1;fill:#ff00ff;fill-opacity:1"
         transform="scale(0.8) translate(12.5,0)" />
    </marker>
    <filter
       inkscape:collect="always"
       style="color-interpolation-filters:sRGB"
       id="filter4410"
       x="-0.016473517"
       width="1.032947"
       y="-0.0094372409"
       height="1.0188745">
      <feGaussianBlur
         inkscape:collect="always"
         stdDeviation="4.2854622"
         id="feGaussianBlur4412" />
    </filter>
  </defs>
  <sodipodi:namedview
     id="base"
     pagecolor="#ffffff"
     bordercolor="#666666"
     borderopacity="1.0"
     inkscape:pageopacity="0.0"
     inkscape:pageshadow="2"
     inkscape:zoom="0.98994949"
     inkscape:cx="210.77194"
     inkscape:cy="640.32048"
     inkscape:document-units="px"
     inkscape:current-layer="g4253"
     showgrid="false"
     fit-margin-top="0"
     fit-margin-left="0"
     fit-margin-right="0"
     fit-margin-bottom="0"
     inkscape:window-width="1920"
     inkscape:window-height="986"
     inkscape:window-x="-11"
     inkscape:window-y="-11"
     inkscape:window-maximized="1" />
  <metadata
     id="metadata7">
    <rdf:RDF>
      <cc:Work
         rdf:about="">
        <dc:format>image/svg+xml</dc:format>
        <dc:type
           rdf:resource="http://purl.org/dc/dcmitype/StillImage" />
        <dc:title />
      </cc:Work>
    </rdf:RDF>
  </metadata>
  <g
     inkscape:label="Layer 1"
     inkscape:groupmode="layer"
     id="layer1"
     transform="translate(-542.5,-407.00507)">
    <path
       style="fill:none;stroke:#000000;stroke-width:6;stroke-linecap:round;stroke-linejoin:round;stroke-miterlimit:4;stroke-dasharray:none;stroke-opacity:1"
       d="m 889.11343,477.53696 c 21.1442,-0.23992 44.513,11.14276 51.0547,32.47657 4.1747,12.12222 0.2715,26.12116 6.4024,37.50976 5.1604,4.26014 6.7977,12.33712 2.7187,17.86524 -7.2766,20.23882 -25.6538,36.4104 -26.5117,58.68554 1.5352,16.11513 17.1435,25.83414 30.8111,31.37434 18.5557,7.50136 40.8982,12.42882 52.37247,30.52996 17.8457,26.01854 16.0429,59.09526 19.7988,88.9668 3.1273,28.64568 12.1233,56.45032 27.0401,80.78674 11.9694,26.26938 15.0172,56.4453 32.4365,80.11951 16.7428,14.15552 39.2258,19.0824 55.8398,33.46289 -6.0578,6.46617 -15.2287,3.87169 -22.4844,1.55468 -5.6884,-1.34634 -8.0586,7.25827 -4.6777,10.9043 4.1809,12.47907 17.2307,20.51131 18.5684,34.22461 -5.8847,1.5199 -9.3348,-3.9137 -11.4336,-8.3886 -1.3984,-2.6341 -7.5467,-4.5837 -7.2442,0 -0.9637,10.3716 7.6452,19.1291 5.7328,29.7207 0.032,3.5143 -4.0239,-3.5721 -5.514,-5.6856 -1.7193,-3.2414 -5.4988,-10.574 -9.836,-6.9336 -0.8608,4.2166 2.801,12.0176 -3.2636,13.5743 -6.4518,0.077 -5.5105,-8.3905 -7.2149,-12.5508 -1.4608,-5.1451 -3.2152,-12.2453 -8.8418,-13.8223 -6.4489,5.5403 -1.5607,15.5532 -6.584,21.6875 -4.3581,1.9853 -6.1095,-3.9811 -6.3459,-7.2116 -3.9267,-16.6477 -9.3965,-32.78895 -15.7163,-48.69846 -13.9089,-40.47559 -40.9719,-74.18169 -61.56847,-111.28596 -7.4409,-13.10098 -11.5723,-27.62852 -13.9183,-42.43228 -3.4426,-18.18571 -8.2939,-36.09058 -13.2732,-53.77017 -0.8984,-4.79934 -4.6728,0.98418 -4.5586,3.47851 -4.2199,30.73427 -6.8233,62.83729 -1.1508,93.68081 4.4369,20.74335 9.5907,41.35883 12.3584,62.41134 7.4874,40.01745 4.8884,81.03731 1.0282,121.29691 -2.4973,26.5481 -7.8442,52.7242 -11.2244,79.1337 -2.2747,27.0516 4.3226,53.3527 9.1497,79.6357 7.0367,53.0059 -12.1639,105.8501 -2.941,158.5904 2.1132,17.9657 8.1195,35.2998 11.1139,53.1301 1.9204,16.3097 -9.3889,34.1582 -25.7754,37.6387 -9.4341,2.5613 -16.7628,-6.505 -19.2285,-14.6036 -9.247,-26.0355 -5.0804,-54.3798 -9.5533,-81.0808 -1.3206,-30.3357 -1.1147,-60.8949 -9.4017,-90.0805 -4.9941,-20.7397 -8.5029,-42.4603 -3.9773,-63.6269 2.4263,-20.5043 -6.6449,-39.6397 -10.0633,-59.5402 -6.2854,-28.3053 -8.9813,-57.2014 -11.9926,-85.9757 -2.7319,-19.1036 -4.4108,-38.6976 -9.1134,-57.315 -5.8674,-5.6879 -17.3523,0.087 -16.0131,8.337 -10.5908,55.197 -9.1049,112.4253 -24.1804,166.9271 -6.819,17.6317 3.2901,35.8834 0.2326,53.9273 -2.8491,32.3596 -14.2053,63.4828 -12.6867,96.1077 -1.2245,33.9003 0.1354,68.1277 -5.1825,101.7263 -2.3342,10.9077 -7.243,22.9156 -18.166,27.6484 -10.7205,-1.8082 -19.132,-10.2283 -25.2226,-18.7148 -7.2828,-11.4326 -6.2141,-26.1373 -0.5567,-37.9961 9.538,-29.1794 8.2625,-60.4579 5.5673,-90.6839 -2.1774,-26.2725 -7.7579,-52.369 -8.1399,-78.8042 0.5468,-25.6765 9.703,-50.2333 10.9817,-75.8013 2.2515,-23.4799 0.5835,-47.2671 -4.8622,-70.1969 -8.0928,-60.816 1.1599,-122.28122 12.6341,-182.03363 3.6603,-19.61393 9.5532,-38.96193 11.1517,-58.87068 -0.033,-21.54579 -4.7776,-42.81345 -5.1901,-64.35162 -0.1662,-2.91811 -4.4722,-7.49272 -5.8399,-2.52149 -5.1541,9.59105 -6.2904,20.69703 -9.8671,30.88477 -5.1737,22.65311 -9.6843,46.78474 -24.8165,65.27344 -17.1902,25.96219 -37.4394,49.7716 -54.1594,75.99956 -11.2463,20.28082 -14.9066,43.33761 -21.3894,65.29935 -0.7629,3.4412 -6.5621,5.2053 -6.7304,0.5918 -0.333,-4.5888 1.9473,-11.5804 -3.1426,-14.1016 -10.726,4.8366 -8.8183,20.7459 -19.7403,25.7031 -2.1254,1.2478 6.2598,-27.4931 3.4671,-27.7801 -4.1471,-0.4263 -19.248,26.5882 -19.1702,21.9754 0.6021,-9.8722 9.3984,-18.8801 6.1836,-28.80664 -8.9877,0.2596 -12.4612,11.89954 -21.0684,12.76174 -4.2654,-1.3368 -1.3191,-6.3708 0.5684,-8.5176 6.3471,-10.42991 15.1586,-19.65596 18.666,-31.59962 -5.6926,-6.63814 -15.2701,-0.27895 -21.7832,-4.20899 -3.0441,-3.38364 0.9069,-7.70066 4.5295,-8.02121 19.0665,-10.41873 40.6659,-19.76877 53.4725,-37.88113 18.571,-29.12953 25.3488,-65.03764 47.0722,-92.52539 9.0343,-19.52424 7.8123,-41.66688 14.2097,-62.01362 6.0059,-26.63827 9.2913,-54.84634 23.0442,-78.92193 10.4241,-16.13657 28.4302,-25.46515 46.8067,-29.34765 12.8033,-3.75834 27.72,-6.04521 37.2187,-16.11328 4.8284,-13.68605 -1.8639,-27.97595 -6.3476,-40.79493 -7.1423,-14.75576 -18.9448,-30.13886 -15.1895,-47.5039 3.4914,-6.62532 10.8427,-12.28735 8.5196,-20.66602 -1.1424,-28.26051 23.1427,-55.2198 52.1015,-53.81836 z"
       id="path4516"
       inkscape:connector-curvature="0"
       sodipodi:nodetypes="cccccccccccccccccccccccccccccccccccccccccccccccccccccccccccccccccccscccccccccccccccccc" />
    <g
       id="g4253"
       style="stroke-linecap:round;stroke-linejoin:round;filter:url(#filter4410)">
      <path
         inkscape:connector-curvature="0"
         id="path4285"
         d="m 886.60546,471.54282 c -30.6088,0.95397 -59.6338,28.30335 -57.4726,59.84766 0.09,5.62388 -2.873,10.66673 -7.0215,14.16015 -6.4494,11.17811 1.0868,23.87941 5.5097,34.33762 7.1251,16.55902 14.6391,33.56115 17.0508,51.4866 -0.6412,8.84842 -10.98,10.94323 -17.6387,13.60547 -20.2568,7.14138 -44.2384,9.2126 -59.4218,26.14453 -14.6864,18.37779 -20.6322,41.78636 -26.2369,64.15112 -5.9456,24.22755 -9.441,48.96063 -14.5776,73.34107 -3.8009,16.97654 -16.0413,30.09866 -22.86,45.79239 -10.9729,19.72068 -15.1362,42.80169 -29.0044,60.9445 -8.9888,13.10983 -22.5664,21.94874 -36.9753,28.07397 -8.4677,4.16995 -18.3001,7.90507 -23.9122,15.80047 -1.2683,11.3267 12.8215,18.06997 22.5625,15.26367 -7.3379,11.64475 -19.9366,22.30832 -18.8243,37.33016 -0.085,8.4682 -0.67686,9.5893 21.5982,-1.5227 -5.66583,21.9908 4.51186,29.7244 12.26812,13.2172 -3.7392,17.1432 10.75404,26.1199 21.281,-5.4461 9.87985,33.286 3.62769,10.4973 6.01048,12.9 9.6971,2.3276 15.6451,-7.9714 16.4981,-16.1953 3.709,-17.58664 7.8753,-35.21748 15.0649,-51.73104 9.6388,-19.14206 25.3065,-34.27056 36.9116,-52.15224 13.4007,-19.00282 28.0904,-37.41551 37.3633,-58.9117 4.7045,-13.28919 5.6302,-27.60334 10.918,-40.78906 6.4791,26.13702 4.6482,53.91985 -3.6219,79.41953 -4.4525,27.02567 -10.4435,53.89304 -14.1984,80.96719 -5.5961,50.32722 -5.0447,101.42572 3.4436,151.46362 4.4644,38.9795 -8.8653,76.9887 -10.7913,115.5419 0,24.0515 5.7251,47.8926 7.5054,71.9403 1.7887,28.9697 6.7164,59.1176 -3.3481,87.2062 -6.2334,15.4554 -10.8311,35.2596 0.2177,49.6722 8.0224,9.8733 18.4157,19.7002 31.42,21.6465 13.2073,-1.0362 20.2716,-14.8651 22.6054,-26.3789 7.0273,-26.7945 3.7259,-54.7316 6.9961,-81.9941 0.061,-27.6188 -2.1026,-56.1097 7.1484,-82.6641 5.7472,-21.4279 7.9068,-43.9856 5.6465,-65.959 -0.773,-22.4494 3.4751,-44.635 8.6893,-66.3419 7.5975,-44.4779 5.3739,-90.6173 18.8439,-134.0546 4.9981,18.0396 4.9472,36.9499 7.8137,55.3665 4.5264,40.9401 9.7951,81.8392 20.2313,121.6668 3.8084,23.3204 -3.2948,47.1166 1.9941,70.1933 8.2244,31.2898 14.1239,63.6646 11.9766,96.1582 1.8042,24.5372 5.6315,49.1424 6.7754,73.832 2.0562,14.3676 6.7964,31.6062 20.9882,38.6485 14.4575,4.7024 28.7448,-6.8717 34.8809,-19.2735 10.627,-20.0699 6.4869,-44.213 -0.918,-64.8691 -11.3598,-42.4984 -2.5146,-86.6312 1.8592,-129.3998 2.0974,-22.2593 -0.5274,-44.4625 -5.7767,-66.2164 -5.5646,-26.8752 -7.5314,-54.8359 -1.5982,-81.8414 13.522,-68.9255 17.3276,-140.71836 0.9298,-209.4233 -7.7908,-30.3105 -13.8901,-62.36253 -7.9883,-93.60352 10.46,23.13621 8.2551,50.69655 23.5641,71.8347 21.59794,36.8133 48.81074,71.29683 60.85574,112.88601 6.3523,16.53811 10.2625,34.04981 17.4278,50.21881 3.0468,5.6917 12.1932,8.1071 15.6308,1.6074 2.4571,-3.1474 6.3419,-0.4465 6.6368,2.8652 4.116,6.2946 15.6321,5.6671 18.0996,-1.8359 5.5009,0.487 13.0971,5.0476 16.1601,-2.0762 2.0753,-3.9655 -0.4299,-10.4863 2.6715,-12.9189 9.1169,1.1635 14.2044,-10.61 9.7641,-17.7432 -4.3801,-9.58954 -12.8073,-17.19097 -16.0215,-27.50003 8.9794,2.03125 22.7955,-0.62321 24.1719,-11.39453 -0.8068,-10.36098 -12.7552,-13.55156 -20.086,-18.37304 -12.2909,-7.0121 -29.5414,-8.2346 -36.9746,-21.91211 -17.8468,-28.77056 -20.6224,-63.98226 -37.957,-93.03711 -14.6656,-23.76608 -17.4568,-52.24461 -19.6836,-79.44727 -1.9926,-23.88176 -3.154,-49.11586 -17.0293,-69.64844 -9.6888,-15.96298 -26.09124,-26.85347 -43.74414,-32.37695 -10.6196,-4.05333 -22.6069,-6.40365 -31.5195,-13.77539 -11.6846,-13.24319 -8.015,-34.07675 2.5758,-46.80029 7.501,-12.58947 17.7684,-25.55656 17.5004,-40.91065 -2.8431,-6.20616 -10.4407,-10.5748 -9.5488,-18.32031 -0.3466,-11.23942 0.7599,-22.80813 -5.2989,-32.90039 -9.9674,-20.44433 -33.0932,-31.04268 -55.1679,-29.82226 -0.9906,-0.009 -1.9974,0.003 -2.8434,0.0293 z"
         style="fill:none;stroke:#ff00ff;stroke-width:10;stroke-miterlimit:4;stroke-dasharray:none;stroke-opacity:1"
         sodipodi:nodetypes="cccccccccccccccccccccccccccccccccccccccccccccccccccccccccccccccccccccccccccc" />
      <path
         inkscape:connector-curvature="0"
         id="path4291"
         d="m 889.14672,463.4647 c -35.8678,-0.79874 -70.1281,31.45197 -68.0742,67.95507 -2.1164,8.31967 -11.3029,13.91098 -9.3828,23.32227 0.7386,19.79515 14.3852,36.02551 19.2121,54.88093 2.4941,6.92428 5.0386,14.05079 5.0535,21.50384 -8.5534,7.50624 -20.6133,8.09873 -30.8806,11.96832 -18.5762,4.95276 -39.0905,12.71381 -49.0002,30.52191 -18.7936,29.58967 -23.2583,65.24708 -30.6083,98.75942 -3.4335,21.82999 -7.0977,44.70685 -20.3683,63.05113 -10.5325,16.89388 -17.7194,35.48052 -24.7383,54.00586 -7.9794,18.72029 -21.134,36.59013 -40.5886,44.33556 -12.141,5.95261 -27.7979,10.83543 -33.5579,24.2953 -2.0364,10.33088 6.0688,19.90626 15.3399,23.3164 -8.7463,10.83442 -16.6133,27.21329 -8.3965,40.44729 3.7741,4.966 18.8249,3.7853 19.0259,11.7383 6.8654,17.0267 25.86512,10.8626 38.7026,7.0508 3.101,-5.7511 9.1649,0.1641 14.0625,-1.4981 12.3671,-2.4303 18.206,-15.42 19.195,-26.8545 5.1443,-25.28867 12.536,-51.52478 30.5644,-70.86104 18.4872,-23.0221 34.3654,-47.88897 51.4496,-71.92961 4.4567,-5.83374 0.6248,7.45485 0.1376,10.39582 -6.1894,29.82681 -11.7202,59.75311 -16.0907,89.87823 -7.3917,54.4489 -3.8149,109.6027 3.8164,163.8653 2.0617,44.8206 -17.6474,88.5629 -9.3497,133.0978 3.9559,38.4217 12.1414,77.5186 5.7467,116.1725 -3.6765,17.9636 -14.3337,35.5803 -8.856,54.3644 2.9767,14.6538 14.7716,24.8875 26.3203,33.1622 9.8847,7.1731 24.6175,9.2012 34.2598,0.4726 15.4453,-13.1391 16.728,-35.0589 18.8361,-53.7815 1.5637,-22.7641 1.757,-45.6043 2.7674,-68.3982 -0.5991,-26.741 0.8179,-53.9981 9.791,-79.4297 6.254,-25.9921 2.4326,-53.0178 4.0195,-79.4902 3.599,-29.8932 12.2836,-59.0325 13.2113,-89.1663 1.0184,-9.3912 0.5349,-19.3324 4.7809,-28.0075 3.7829,13.6843 3.6238,28.1569 6.2898,42.1249 3.934,28.3854 10.2443,56.4776 15.4145,84.6315 0.5838,24.1846 -4.2997,49.3792 4.15,72.5818 7.4116,28.8275 10.1789,58.6948 9.367,88.396 1.9139,24.8342 5.1682,49.8518 7.1552,74.6032 2.7682,16.4649 10.8691,35.8176 28.3618,40.9829 18.3959,3.8398 35.7026,-9.8677 42.7793,-26.082 10.6183,-22.2356 6.2547,-48.0273 -1.7449,-70.4461 -11.4054,-43.5774 -0.051,-88.4812 3.058,-132.2854 1.4927,-27.3065 -4.9113,-54.0181 -9.9034,-80.6039 -3.9351,-27.6894 0.2014,-55.6614 6.1333,-82.733 11.1332,-67.1612 10.7627,-136.87984 -6.3243,-202.94146 0.6965,-4.55933 5.8014,-1.41067 6.4942,1.50977 10.9067,20.00189 24.62378,38.5432 35.59538,58.61004 12.1637,20.7358 21.1981,43.11721 27.7604,66.20405 4.5459,13.7245 7.3148,29.0661 17.0094,40.2563 5.3648,4.277 13.2281,5.5828 19.4102,2.2929 6.531,5.3282 16.442,7.5135 23.6094,2.1211 5.7686,-3.1433 12.9843,0.6091 18.0605,-4.5117 4.5454,-3.3549 7.3851,-8.9711 6.9824,-14.6601 14.1012,-5.0318 16.2903,-25.2921 6.3457,-35.28324 -1.6594,-2.6015 -6.4589,-7.26651 -2.5801,-9.69732 11.2217,-2.93818 20.2751,-18.17347 12.4727,-28.43945 -11.202,-15.19434 -31.0622,-18.14824 -46.6582,-26.78516 -11.4807,-6.61079 -14.8963,-20.06089 -19.6464,-31.42772 -10.1007,-26.74367 -16.4543,-55.2644 -32.1667,-79.53605 -18.7577,-40.41104 -7.4865,-87.69581 -25.2192,-128.06637 -10.6381,-23.10347 -31.70908,-41.21864 -56.33538,-47.6619 -10.1743,-3.62294 -22.858,-6.1401 -29.1987,-15.84702 -5.5923,-12.84591 1.4506,-26.88221 9.5019,-36.9407 7.9551,-13.11752 18.0557,-27.69977 15.0196,-43.95969 -4.735,-7.27069 -11.6765,-15.27739 -8.6825,-24.63606 0.6221,-30.35648 -24.8802,-57.2525 -54.7101,-60.11199 -4.5667,-0.63083 -9.4799,-0.87987 -14.2012,-0.80273 z"
         style="fill:none;stroke:#0000ff;stroke-width:10;stroke-miterlimit:4;stroke-dasharray:none;stroke-opacity:1"
         sodipodi:nodetypes="cccccccccccccccccccccccccccccccccccccccccccccccccccccccccccccccccccc" />
      <path
         sodipodi:nodetypes="ccccccccccccccccccccccccccccccccccccccccccccccccccccc"
         inkscape:connector-curvature="0"
         id="path4334"
         d="m 890.45703,458.67188 c -38.4641,-0.64823 -73.17302,33.44842 -74.59961,71.6289 -6.50081,12.14136 -11.80028,27.42944 -4.92261,40.55499 6.4612,19.64042 18.76711,37.4169 20.33277,58.45868 -22.30067,11.42449 -50.90487,11.65978 -69.0957,30.81446 -24.27495,26.07856 -30.91225,62.57588 -36.90847,96.41772 -5.53013,33.75527 -14.93658,67.56567 -33.89066,96.30449 -11.67403,24.30488 -18.43393,53.25621 -41.09931,70.21919 -14.14525,11.52327 -35.53311,13.60212 -45.86328,29.84375 -4.283,8.00168 -1.5421,17.69914 3.70312,24.48828 3.56852,7.74173 2.04954,16.77096 -1.89062,24.00786 -2.96096,11.5052 3.0483,23.6771 12.47711,30.2713 9.4796,12.694 24.88452,25.8277 41.80804,19.3341 7.91977,-2.5293 15.10468,-7.4576 23.60547,-7.5332 13.11394,-2.5354 23.04309,-14.7438 23.68586,-27.9512 3.42648,-19.61936 7.79406,-39.60573 19.16184,-56.4126 14.19887,-23.81109 33.41719,-43.99694 51.60933,-64.72602 -5.07462,20.63448 -8.26807,41.83186 -11.05448,62.93014 -7.6015,60.56098 -6.42757,122.09448 2.00868,182.48778 -0.21049,47.359 -17.65337,94.8324 -7.60068,142.3809 6.25598,41.6916 12.87595,85.7697 -3.62695,125.8926 -7.40942,25.1979 4.49349,54.8209 28.19335,66.7265 13.04077,7.2665 31.75913,7.3963 41.98438,-4.7832 15.69228,-17.0557 15.39826,-41.8714 16.88122,-63.5649 2.43047,-51.2285 0.21248,-103.4803 14.33753,-153.2007 5.30851,-31.1013 0.90116,-61.3556 13.85547,-90.8734 -1.06244,-61.4159 10.85017,-27.9553 14.68961,11.9464 7.30221,40.7424 0.823,80.6391 13.55648,120.6887 9.72203,46.1522 2.9368,94.4514 13.30721,140.771 3.35291,11.9265 5.23456,25.5557 14.41545,34.649 11.48362,11.5506 31.23895,13.5421 44.31587,3.4758 22.39421,-14.9482 29.95495,-45.1821 23.74991,-70.4177 -6.18119,-27.5269 -13.87391,-55.3928 -10.91676,-83.7837 4.17983,-40.6481 12.06191,-82.1296 4.04554,-122.9163 -3.02545,-13.3898 -6.8663,-26.5267 -7.00924,-40.3665 -2.17192,-37.9547 7.38993,-75.2926 12.2066,-112.833 3.62429,-39.9965 2.06655,-80.23234 -0.26888,-120.25434 15.02208,2.15846 23.56778,16.7811 29.22068,29.42187 16.0167,31.06855 21.2746,66.92097 39.4883,96.85547 16.0176,10.3971 36.5644,9.5655 54.541,6.1309 16.6995,-6.4746 28.289,-22.7301 32.4688,-39.7129 1.4183,-8.1159 -3.2803,-15.7327 -3.4063,-23.57816 2.4035,-8.64828 11.8399,-15.26426 9.8985,-25.11523 -1.0173,-13.6429 -12.8416,-24.58387 -25.9606,-26.81546 -16.3841,-6.14501 -35.0156,-15.88244 -39.6198,-34.11522 -13.4573,-35.80885 -26.5155,-71.85001 -42.1989,-106.73534 -10.2176,-37.57938 -2.7788,-79.47147 -21.9942,-114.76171 -14.6761,-27.12893 -44.34188,-41.5801 -72.79294,-49.79493 -12.06126,-5.24606 -13.29748,-22.2952 -5.82813,-31.89648 9.1543,-15.28792 24.00127,-30.85604 21.30078,-50.27539 -2.17015,-12.25017 -11.66697,-22.77685 -9.60547,-35.7793 -1.00123,-26.97829 -23.91383,-48.51738 -48.79687,-55.54883 -7.09956,-2.06085 -14.50445,-3.08791 -21.89844,-2.95507 z"
         style="fill:none;stroke:#00ffff;stroke-width:10;stroke-miterlimit:4;stroke-dasharray:none;stroke-opacity:1" />
      <path
         sodipodi:nodetypes="cccccccccccccccccccccccccccccccccccccccccccccccccc"
         inkscape:connector-curvature="0"
         id="path4388"
         d="m 890.23462,448.67173 c -42.8192,-0.60485 -81.4806,36.41025 -84.0976,78.85742 -8.5432,14.59863 -12.0304,33.41142 -4.0039,48.9043 5.8525,15.84299 14.8991,30.55369 18.2949,47.26172 -25.4549,7.39518 -54.5936,13.60957 -71.3633,36.01562 -23.2997,30.57387 -29.3229,69.65412 -35.7972,106.55032 -4.7785,31.79909 -17.9581,61.64074 -34.2165,89.12546 -9.338,21.66824 -16.3141,47.03102 -36.8965,61.05469 -15.2295,10.7356 -36.7555,13.92766 -46.4433,31.40625 -6.2148,10.10167 -3.9151,23.09814 2.3535,32.55664 4.2533,9.56246 -3.3408,18.72281 -2.6895,28.33795 -0.3299,10.8552 5.2778,20.9729 13.7379,27.4763 10.5348,11.4706 21.8986,26.2958 39.0864,26.2542 12.2338,0.8017 23.5127,-4.9646 34.6757,-8.7071 21.5048,-1.9313 36.5163,-23.5039 36.0898,-44.1316 4.9553,-29.08359 19.8095,-55.97099 40.2716,-77.03834 2.1386,12.58134 -3.3027,24.71136 -3.4375,37.19726 -6.4905,57.69768 -2.8428,115.86028 3.6806,173.42358 -1.2215,46.5708 -17.5559,92.9517 -7.4835,139.4118 5.2249,38.588 12.7054,79.5241 -1.4173,117.1909 -10.7032,27.3031 -1.7639,60.6012 22.351,77.9874 15.6363,12.3032 39.5395,17.528 56.5098,4.8106 19.0917,-14.2448 24.0164,-39.3949 25.0788,-61.7511 4.167,-54.7571 -0.7102,-111.0563 14.8587,-164.4931 1.2754,-9.8826 2.20709,-72.2644 9.33729,-80.0946 8.3522,15.4 3.70951,85.0527 9.54421,101.1533 8.303,36.6058 10.3357,74.2169 11.0161,111.6268 1.6476,28.8402 4.2087,59.4686 19.5301,84.7833 15.4307,19.5622 47.9225,22.3749 65.6114,4.4453 22.46658,-18.6239 29.81618,-50.6525 22.82218,-78.0527 -7.74358,-31.3596 -15.26468,-64.3089 -8.59548,-96.5789 4.76848,-41.3643 10.47648,-84.0841 -2.1635,-124.5285 -8.222,-42.9056 2.1509,-86.2312 8.98648,-128.5317 3.2228,-30.5114 -0.4855,-73.27406 1.753,-103.90394 5.6187,-2.7361 12.0091,15.02729 13.1029,19.91314 13.5953,29.18376 18.3997,62.282 36.0924,89.501 16.3657,13.5733 39.6389,12.936 59.6288,10.8127 17.5152,-3.379 30.721,-17.0738 38.9103,-32.2151 7.0423,-11.1397 8.6972,-25.4157 4.0371,-37.71484 0.1079,-8.87792 9.2938,-14.56176 8.7441,-23.7012 2.0859,-19.04139 -11.9242,-37.88021 -30.7694,-41.50953 -14.2659,-5.15114 -30.5121,-12.83197 -35.1914,-28.58708 -13.2948,-33.52462 -23.9264,-68.18092 -40.0631,-100.4671 -13.5292,-40.6162 -3.3446,-86.68996 -25.8569,-124.53199 -16.1789,-27.70692 -46.24528,-43.53182 -76.07428,-52.20117 -7.6226,-4.25936 -4.6722,-14.99128 0.1192,-20.35156 12.1359,-16.98852 25.7426,-37.46683 19.8984,-59.07422 -2.8266,-9.0421 -8.8027,-17.09174 -8.6059,-26.93501 -0.4837,-10.87403 -2.0498,-21.61355 -8.2144,-30.96734 -14.5251,-25.25477 -43.7319,-40.5092 -72.7422,-39.99023 z"
         style="fill:none;stroke:#00d400;stroke-width:10;stroke-miterlimit:4;stroke-dasharray:none;stroke-opacity:1" />
      <path
         sodipodi:nodetypes="ccccccccccccccccccccccccccccccccccccccccccccccc"
         inkscape:connector-curvature="0"
         id="path4426"
         d="m 890.24632,440.67173 c -46.0783,-0.68996 -88.2714,38.69656 -91.9375,84.41406 -11.2896,18.8315 -11.2511,43.4878 -0.3242,62.46875 4.3488,10.13676 9.4581,19.98827 12.7363,30.55273 -25.3793,6.85736 -53.1162,15.67244 -69.0469,38.14441 -25.6811,34.77312 -30.9007,79.01595 -38.3938,120.32267 -6.0818,31.02167 -22.8407,58.29992 -35.9948,86.55636 -7.623,19.53512 -16.7705,41.84873 -37.2031,51.13867 -16.6396,7.9578 -36.6454,15.96238 -43.791,34.56055 -5.0826,12.29066 -0.6541,25.84238 4.7461,37.10352 -0.6946,11.48121 -7.0276,23.33655 -2.1016,34.84375 5.1388,15.7723 19.4115,25.71 30.1055,37.5235 12.5037,11.4413 31.1478,15.7239 47.1655,9.6884 10.8904,-3.5619 21.8897,-6.9814 32.7075,-10.6122 18.7745,-9.2761 28.6156,-30.6514 28.8125,-50.8968 3.7159,-17.62297 11.0886,-34.30357 21.541,-49.2029 -8.9287,62.768 -4.0062,126.4224 2.0788,189.1904 -2.2433,46.0516 -17.2691,92.4706 -7.0866,138.6046 5.2001,36.2402 11.3325,73.9505 -0.1055,109.6738 -16.5957,35.667 1.7907,82.3502 37.711,97.9004 19.8533,9.3922 46.5818,6.4905 60.7929,-11.3594 18.0446,-20.3569 19.8624,-49.117 20.7305,-75.0148 2.3006,-49.4991 1.18399,-147.9654 13.97599,-196.0594 0.9364,13.6393 4.30551,74.6867 6.97701,87.989 8.0702,45.0162 4.2544,91.1697 11.7794,136.2278 3.6485,18.4313 9.2972,37.9241 23.1094,51.3789 21.1984,18.2724 56.9759,16.1234 75.0117,-5.6328 23.72148,-23.4506 28.84648,-60.9453 18.32008,-91.7446 -8.1006,-30.8501 -11.3472,-63.2208 -4.677,-94.7555 4.9544,-39.895 7.605,-81.3596 -4.3044,-120.3296 -8.95488,-53.7444 12.6904,-106.331 11.9613,-160.1621 0.2419,-11.8635 0.2981,-23.78712 0.745,-35.60202 11.6246,27.30112 16.3586,57.78842 33.6152,82.47662 6.8421,8.3281 17.9289,11.9563 28.1465,14.3594 15.5785,2.8337 32.0328,2.3611 47.2793,-1.877 23.7594,-9.1346 40.8267,-32.5882 44.2851,-57.5137 0.7248,-7.255 -2.605,-14.6979 -1.1601,-21.71094 5.0909,-8.62528 9.5623,-18.51991 7.2558,-28.75781 -2.2381,-21.15487 -20.32,-38.49283 -40.9355,-42.06446 -12.6601,-4.47357 -25.0533,-13.88725 -27.6719,-27.75012 -12.4637,-34.15691 -25.5625,-68.13003 -39.8516,-101.53699 -9.6649,-38.18593 -3.0797,-80.76271 -22.9257,-116.38867 -16.5185,-30.34502 -48.56338,-48.47386 -80.63288,-58.24218 -1.1418,-7.7465 7.1237,-12.3749 10.0739,-18.86683 11.4518,-16.97322 20.4769,-39.2843 12.1176,-59.45935 -4.1583,-9.46888 -8.2432,-19.4423 -7.293,-29.98437 -5.35,-41.67587 -48.0783,-70.58815 -88.3438,-69.59375 z"
         style="fill:none;stroke:#ffff00;stroke-width:10;stroke-miterlimit:4;stroke-dasharray:none;stroke-opacity:1" />
      <path
         sodipodi:nodetypes="cccccccccccccccccccccccccccccccccccccccccccc"
         inkscape:connector-curvature="0"
         id="path4436"
         d="m 890.28742,432.67173 c -49.4359,-0.72434 -94.9626,40.8879 -99.7676,89.89453 -13.2855,22.9109 -10.3344,52.41248 2.9355,74.63672 2.2911,5.18127 4.966,10.16049 6.7871,15.46289 -27.1523,7.293 -55.3052,20.53897 -69.8711,45.87695 -23.9618,36.97484 -28.0821,81.99025 -36.7031,124.10352 -9.8889,35.8047 -30.869,67.25646 -44.3943,101.68607 -7.3615,14.11106 -20.9478,23.92596 -35.8199,28.88127 -17.8443,8.39585 -35.8667,23.41114 -37.3971,44.46 -1.1472,11.18333 4.6375,21.58461 6.2524,32.20484 -3.4952,14.05198 -5.6488,30.45768 3.4841,42.93588 9.1289,15.0425 22.8653,26.5883 36.1697,37.7539 17.5455,11.1991 40.3717,9.5154 58.6922,1.1685 16.7178,-4.2383 34.6695,-11.1561 43.7512,-26.858 8.4505,-12.6764 10.8875,-28.1182 12.6269,-42.9316 -2.5815,49.9518 2.7063,99.8482 5.9747,149.5957 -3.4077,45.0874 -16.5694,90.7441 -6.4903,135.9082 5.4845,37.5088 11.7037,77.2269 -3.0937,113.082 -13.8743,42.8117 14.7022,94.7857 59.1601,104.0762 24.8422,5.8805 52.9967,-6.4804 64.3711,-29.5977 16.3568,-28.586 13.6682,-62.8196 15.3575,-94.4994 0.7826,-26.4991 1.96899,-107.3212 5.15169,-133.6281 9.4134,51.8294 0.73761,160.4568 16.53961,211.3346 5.9746,19.8564 19.639,39.0464 40.3653,45.0761 26.113,8.4551 56.9833,-1.9904 72.19918,-24.9551 21.5869,-27.3875 23.8263,-66.0106 12.1624,-98.0141 -8.382,-31.9118 -7.7206,-65.9605 -1.3896,-98.3566 4.4572,-38.0444 4.0848,-77.2273 -6.4814,-114.2738 -6.1676,-48.7219 10.8436,-96.2879 12.7574,-144.9433 6.0326,17.5079 12.6086,36.4006 27.1367,48.7382 20.4459,14.3507 47.2801,14.5866 70.9629,10.2793 30.3854,-7.7013 52.8996,-36.8238 55.7871,-67.5586 0.078,-8.5153 -3.6851,-17.90464 2.254,-25.35743 8.7107,-16.75899 3.9056,-37.9826 -7.3809,-52.36719 -8.4801,-11.27364 -21.3992,-18.89533 -35.0117,-21.71289 -11.4644,-3.33312 -21.1257,-12.74531 -23.8203,-24.65039 -9.0867,-28.89608 -21.7703,-56.71543 -32.5248,-85.08241 -5.183,-12.03669 -9.3109,-24.48179 -10.1368,-37.651 -3.8999,-33.8699 -3.5659,-70.51652 -22.9101,-100.143 -16.8556,-26.47857 -44.9595,-43.67001 -74.06308,-53.83257 14.9617,-18.92523 27.03468,-43.33247 21.957,-68.02735 -1.8751,-9.73392 -8.4878,-17.9083 -8.8574,-28.05078 -1.0045,-12.59826 -2.9927,-25.43513 -9.928,-36.29833 -17.1378,-30.40344 -52.2072,-48.92791 -86.7946,-48.36573 z"
         style="fill:none;stroke:#ff6600;stroke-width:10;stroke-miterlimit:4;stroke-dasharray:none;stroke-opacity:1" />
      <path
         sodipodi:nodetypes="cccccccccccccccccccccccccccccccccccccccc"
         inkscape:connector-curvature="0"
         id="path4446"
         d="m 887.87912,424.66782 c -51.9215,0.6097 -99.2696,43.94153 -105.1328,95.41602 -14.3915,26.08611 -9.9145,58.96465 4.8516,83.86133 0.5551,1.85373 3.8819,4.30314 -0.34,4.1702 -28.7338,8.82791 -55.8966,27.41018 -69.0538,55.16294 -21.3198,38.1474 -24.0538,82.73405 -34.4334,124.34762 -11.4937,34.03396 -30.204,65.02221 -44.458,97.90127 -12.5978,18.81263 -38.098,20.27399 -53.1506,36.24377 -14.2915,13.14536 -22.7607,34.29951 -15.9249,53.27956 2.9604,8.1307 4.6475,16.95099 1.6843,25.31427 -2.952,17.4742 3.058,35.8951 15.6538,48.3499 11.8963,13.8962 25.4797,27.5077 42.6222,34.6055 20.1327,6.8981 41.718,1.1632 60.877,-6.0742 14.3761,-4.3333 28.2142,-12.059 37.5449,-24.0625 0.9529,35.7735 6.1154,71.3916 5.5217,107.1165 -4.7924,43.7627 -15.1802,88.696 -4.905,132.546 5.6944,36.4365 10.0272,74.8924 -4.7378,109.7105 -12.4239,46.6882 19.8071,100.9004 67.6738,110.1582 32.2312,7.3485 67.3551,-13.7573 77.2051,-45.0839 5.5363,-13.6491 8.0284,-56.319 9.1894,-70.9395 3.2789,21.7893 8.0283,72.4963 20.9336,90.8125 13.7271,18.6028 37.4025,29.3169 60.4629,26.4668 26.6773,-2.3945 50.47378,-20.4703 61.85548,-44.4375 15.8692,-29.7054 14.5337,-65.8731 3.2383,-96.875 -8.3763,-34.4977 -3.2619,-70.2776 1.7897,-104.8909 3.2995,-35.8111 -0.1067,-72.0632 -8.6608,-106.9157 -3.0286,-35.1603 5.4563,-70.0858 10.2812,-104.793 8.6225,16.5221 24.1529,29.8653 42.8125,33.1191 23.6831,5.6103 49.9908,4.1729 71.627,-7.5859 25.7334,-14.9844 44.0234,-44.4475 41.8848,-74.6387 -1.5219,-7.11664 0.9261,-14.54276 4.7148,-20.72463 11.03,-33.17362 -13.649,-71.21981 -46.9629,-78.25391 -9.4365,-2.40968 -18.3438,-8.62577 -20.7824,-18.52468 -5.3095,-16.09773 -10.8183,-32.51406 -17.577,-48.23508 -11.4762,-27.9392 -25.242,-56.0868 -26.5761,-86.71289 -2.8773,-32.0757 -5.2707,-66.35281 -24.2292,-93.69689 -15.9694,-23.72285 -40.534,-40.48278 -66.74148,-51.12733 14.28918,-20.59499 23.71078,-47.77205 15.06468,-72.47198 -4.71608,-10.41186 -8.01408,-21.58501 -8.03348,-33.06513 -8.2073,-48.55029 -58.3328,-81.44481 -105.7891,-79.47266 z"
         style="fill:none;stroke:#ff8080;stroke-width:10;stroke-miterlimit:4;stroke-dasharray:none;stroke-opacity:1" />
    </g>
  </g>
</svg>
