<?xml version="1.0" encoding="UTF-8"?>
<!DOCTYPE svg PUBLIC "-//W3C//DTD SVG 1.1//EN" "http://www.w3.org/Graphics/SVG/1.1/DTD/svg11.dtd">
<!-- Creator: CorelDRAW -->
<svg xmlns="http://www.w3.org/2000/svg" xml:space="preserve" width="60mm" height="60mm" style="shape-rendering:geometricPrecision; text-rendering:geometricPrecision; image-rendering:optimizeQuality; fill-rule:evenodd; clip-rule:evenodd"
viewBox="0 0 60 60"
 xmlns:xlink="http://www.w3.org/1999/xlink"
 xmlns:dc="http://purl.org/dc/elements/1.1/"
 xmlns:cc="http://web.resource.org/cc/"
 xmlns:rdf="http://www.w3.org/1999/02/22-rdf-syntax-ns#"
 xmlns:svg="http://www.w3.org/2000/svg"
 xmlns:sodipodi="http://inkscape.sourceforge.net/DTD/sodipodi-0.dtd"
 xmlns:inkscape="http://www.inkscape.org/namespaces/inkscape"
 sodipodi:version="0.32"
 inkscape:version="0.43"
 sodipodi:docbase="C:\Dokumente und Einstellungen\Administrator\Eigene Dateien\Eigene Bilder\aktuelle Bilder\svg"
 sodipodi:docname="allah.svg"
 version="1.0">
 <defs>
  <style type="text/css">
   <![CDATA[
    .fil1 {fill:black}
    .fil2 {fill:#050505}
    .fil0 {fill:black;fill-rule:nonzero}
   ]]>
  </style>
 </defs>
 <g id="Слой_x0020_1">
  <metadata id="CorelCorpID_0Corel-Layer"/>
  <sodipodi:namedview inkscape:window-height="712" inkscape:window-width="1024" inkscape:pageshadow="2" inkscape:pageopacity="0.0" borderopacity="1.0" bordercolor="#666666" pagecolor="#ffffff" id="base" inkscape:zoom="10.414251" inkscape:cx="26.166068" inkscape:cy="41.429608" inkscape:window-x="-4" inkscape:window-y="-4" inkscape:current-layer="svg1321"/>
  <path id="path1338" class="fil0" d="M40.7554 17.5162c2.9461,-2.2746 10.477,-7.22 11.7769,-8.287 0.0709,1.4012 -0.0484,1.7905 -0.247,2.0724 -1.2336,1.7507 -10.3008,7.3373 -11.8907,8.1718 0.2259,-1.0368 0.279,-1.3575 0.3608,-1.9572z" sodipodi:nodetypes="ccscc"/>
  <path id="path1336" class="fil0" d="M49.3974 15.6102c0.1234,0.2561 2.4191,-2.2657 2.4616,-2.1606 0.3426,2.8676 1.3367,7.3695 2.3002,8.7737 1.0166,1.4815 4.7907,2.5778 1.6527,8.7479 0.9181,-5.1941 -2.3963,-6.5922 -2.4179,-6.9594 2.3159,23.5058 0.991,27.2181 -1.445,31.0011 1.1296,-14.9047 0.1498,-23.9109 -2.5516,-39.4027z" sodipodi:nodetypes="ccscccc"/>
  <path id="path1334" class="fil0" d="M4.8805 31.8362c1.1575,0.0601 -2.074,8.1746 2.2357,9.4404 4.4097,1.2951 9.1881,-15.5116 13.2226,-14.1106 5.561,1.9311 -7.4106,24.6842 5.017,24.909 8.754,0.1564 5.5655,-5.6962 5.7189,-25.5581 -0.1015,-0.0307 1.9188,-2.3493 2.0733,-2.2892 1.8066,20.4554 0.2225,28.4137 7.2292,28.339 11.4937,-0.1197 2.0153,-18.3685 2.2318,-22.9068 -0.0575,0.2147 2.7906,-6.3144 2.6615,-4.9814 0.5277,6.8594 3.7486,3.1795 4.6434,14.3701 -2.5908,-2.2072 -0.0407,-3.0076 -3.8966,-6.9268 1.81,9.1124 5.5182,23.7957 -3.0193,25.8986 -4.6196,1.138 -6.8527,-0.312 -9.8191,-5.6854 -2.1358,6.2245 -6.6344,6.0053 -9.4499,5.3791 -13.406,-2.9812 -0.8604,-24.4588 -5.0094,-25.3117 -3.9953,-0.8213 -5.5626,15.3969 -11.8614,13.4563 -6.491,-1.9997 -3.1351,-14.0825 -1.9777,-14.0225z" sodipodi:nodetypes="czssccsccccscszzz"/>
  <path id="path1340" class="fil0" d="M29.1104 13.5002c-0.07,2.9696 -0.5209,4.7364 1.2304,4.8999 1.7534,0.1637 1.1093,-3.1784 1.2188,-5.0526 0.0194,0.038 1.0733,-1.0794 1.1603,-1.079 0.0874,4.8121 0.1044,6.2767 1.3183,6.2613 1.7203,-0.0213 0.9698,-1.7249 0.7187,-4.6266 0.0428,0.0245 1.095,-1.5529 1.0416,-1.5979 0.3968,1.3602 1.5059,2.6163 1.4754,2.5424 0.0535,0.0464 -0.4843,0.213 -0.9224,0.2051 0.0247,1.8108 0.9585,5.6315 -2.2533,5.5804 -1.0203,-0.0162 -1.3958,-0.2606 -2.1178,-1.0337 -0.8124,1.0075 -1.6849,1.2186 -2.5217,1.1812 -2.6214,-0.1173 -1.9343,-7.1482 -0.3483,-7.2805z" sodipodi:nodetypes="czccsccccscsc"/>
  <path id="path10116" class="fil1" d="M18.3638 13.5242c-1.9423,1.5599 -0.3271,2.475 0.5802,2.6279 1.7576,-1.5859 2.1438,-2.654 1.7668,-3.0764 -0.4724,-0.5295 -1.2776,-0.4102 -2.347,0.4485zm-1.0395 -0.6838c-2.331,2.4257 -0.8245,4.2901 0.3013,4.5032 -1.0926,0.8598 -2.835,1.9851 -7.1805,4.2446 0.5402,-0.0853 1.3538,0.3054 1.8686,0.0827 2.8021,-1.2123 5.7597,-2.9826 7.1107,-4.1011 0.5007,0.0326 1.2569,0.2049 1.9596,0.678 -0.1243,-1.1783 0.6108,-1.5314 -0.8771,-1.7244 1.6566,-1.7135 2.1921,-5.1506 0.4223,-5.1051 -1.3581,0.0358 -2.8082,0.593 -3.6049,1.4221z" sodipodi:nodetypes="ccsscccscccss"/>
  <path id="path11876" class="fil2" d="M31.0764 3.5402c-0.0301,-0.1888 1.0867,-2.181 1.4052,-2.3684 2.3116,5.3454 0.3918,8.793 -0.6743,10.0714 0.5667,-4.9071 -0.3084,-6.934 -0.7309,-7.703z" sodipodi:nodetypes="cccc"/>
 </g>
</svg>
